<?xml version="1.0" standalone="no"?>
<!DOCTYPE svg PUBLIC "-//W3C//DTD SVG 20010904//EN"
 "http://www.w3.org/TR/2001/REC-SVG-20010904/DTD/svg10.dtd">
<svg version="1.0" xmlns="http://www.w3.org/2000/svg"
 width="500.000000pt" height="500.000000pt" viewBox="0 0 500.000000 500.000000"
 preserveAspectRatio="xMidYMid meet">

<g transform="translate(0.000000,500.000000) scale(0.100000,-0.100000)"
fill="#000000" stroke="none">
<path d="M3410 4443 c-50 -10 -127 -46 -192 -89 -217 -145 -297 -375 -200
-577 48 -98 40 -96 126 -33 l76 57 -25 49 c-35 69 -41 125 -21 193 22 75 99
155 191 198 57 27 74 31 128 27 77 -5 123 -27 182 -86 98 -100 127 -224 75
-326 -31 -61 -138 -176 -219 -236 -33 -25 -58 -50 -56 -57 2 -6 49 -70 105
-141 l102 -131 69 50 c38 28 69 53 69 56 0 3 -25 41 -55 85 -30 44 -55 81 -55
83 0 2 40 44 88 92 97 96 142 171 162 269 35 169 -98 403 -276 486 -60 28 -81
33 -159 34 -49 1 -101 0 -115 -3z"/>
<path d="M2420 3744 c-108 -13 -179 -27 -234 -45 -308 -104 -535 -299 -668
-576 -176 -366 -134 -784 110 -1108 153 -204 382 -347 642 -401 47 -10 86 -18
88 -20 2 -1 -5 -39 -14 -85 -41 -205 27 -434 176 -587 252 -259 654 -281 937
-52 205 166 301 466 227 710 -46 154 -165 316 -283 385 -28 17 -51 33 -51 37
0 3 11 19 24 35 74 89 159 280 192 430 22 104 22 320 0 425 -54 250 -199 481
-400 636 -68 52 -236 140 -316 165 -124 39 -328 63 -430 51z m-218 -676 c126
-59 207 -176 216 -312 6 -96 -11 -163 -60 -236 -120 -181 -363 -224 -538 -95
-170 125 -200 376 -65 541 44 53 82 81 154 111 80 33 211 30 293 -9z m891 4
c27 -12 75 -47 107 -78 189 -180 139 -489 -98 -606 -61 -30 -74 -33 -162 -33
-82 0 -103 4 -152 27 -232 108 -298 411 -129 591 58 62 89 84 154 108 71 26
210 22 280 -9z m-431 -830 c84 -37 138 -102 138 -165 l0 -23 -257 -18 c-142
-10 -275 -20 -295 -23 -38 -6 -38 -5 -38 30 0 133 156 234 342 222 37 -2 87
-12 110 -23z"/>
<path d="M1827 2966 c-55 -49 -54 -57 3 -111 18 -16 50 -52 72 -78 l41 -48
-92 -87 -92 -87 48 -53 48 -53 94 88 94 87 30 -35 c52 -59 138 -149 143 -149
3 0 27 21 54 46 l50 46 -86 93 -85 93 48 45 c26 24 67 61 91 82 23 20 42 41
42 45 0 11 -80 100 -90 100 -4 0 -47 -36 -96 -80 -48 -44 -90 -80 -93 -80 -3
0 -42 41 -85 90 -44 50 -82 90 -85 90 -3 -1 -28 -20 -54 -44z"/>
<path d="M2718 2963 l-47 -48 85 -92 84 -91 -90 -84 c-49 -45 -90 -87 -90 -92
0 -5 20 -31 45 -57 l45 -48 93 85 92 85 86 -92 87 -92 51 43 c28 24 51 46 51
49 0 3 -36 46 -80 96 -44 49 -80 92 -80 96 0 4 17 22 38 40 20 17 61 54 90 80
l53 49 -47 54 -48 54 -94 -86 -94 -86 -87 92 c-47 51 -88 93 -91 92 -3 0 -27
-21 -52 -47z"/>
<path d="M3855 3189 c-69 -61 -69 -148 1 -209 28 -24 44 -30 80 -30 80 0 128
40 139 117 12 78 -58 153 -141 153 -34 0 -51 -7 -79 -31z"/>
<path d="M924 2771 c-32 -20 -64 -74 -64 -110 0 -37 26 -86 61 -115 29 -25 39
-28 86 -24 42 4 60 11 83 33 61 59 59 148 -5 204 -29 25 -44 31 -83 31 -28 0
-59 -8 -78 -19z"/>
<path d="M1098 2352 c-43 -14 -78 -31 -78 -37 0 -5 13 -50 29 -100 l28 -90
-99 -48 c-115 -56 -218 -149 -258 -232 -32 -68 -39 -207 -15 -291 70 -240 244
-369 475 -351 245 19 448 177 490 381 12 61 8 151 -11 205 l-10 29 -90 -31
-89 -32 8 -35 c4 -19 6 -58 5 -86 -5 -203 -309 -337 -475 -210 -109 82 -158
257 -104 371 38 82 137 154 296 215 47 18 89 37 94 41 8 7 -104 329 -114 328
-3 0 -40 -13 -82 -27z"/>
</g>
</svg>
